<svg width="109" height="44" viewBox="0 0 109 44" fill="none" xmlns="http://www.w3.org/2000/svg">
<g clip-path="url(#clip0_728_24997)">
<path d="M51.4898 21.5035V34.1155H47.4927V2.98268H58.0937C60.6509 2.93303 63.1087 3.90128 64.9707 5.68881C66.8327 7.3522 67.8755 9.7604 67.8258 12.2431C67.8755 14.7506 66.8327 17.1588 64.9707 18.847C63.1087 20.6097 60.8247 21.5035 58.1185 21.5035H51.4898ZM51.4898 6.80601V17.6801H58.193C59.6826 17.7298 61.1226 17.134 62.1405 16.0664C64.2508 14.0306 64.2756 10.679 62.2398 8.56871L62.1405 8.46941C61.1226 7.37703 59.6826 6.78118 58.193 6.83084L51.4898 6.80601ZM77.0366 12.1189C79.9909 12.1189 82.3247 12.9134 84.0377 14.4775C85.7508 16.0664 86.5949 18.2263 86.5949 20.9821V34.0907H82.7715V31.1363H82.5978C80.9344 33.5693 78.7496 34.7858 75.9938 34.7858C73.6601 34.7858 71.674 34.0907 70.1099 32.7004C68.5706 31.4094 67.7017 29.4977 67.7513 27.4867C67.7513 25.2771 68.5955 23.5393 70.2588 22.2234C71.9222 20.9076 74.1567 20.2621 76.9373 20.2621C79.3206 20.2621 81.2571 20.709 82.7964 21.5531V20.6345C82.7964 19.2691 82.2005 17.9781 81.1578 17.1091C80.0903 16.1657 78.7248 15.6443 77.3097 15.6443C75.0752 15.6443 73.3125 16.5878 71.9967 18.4746L68.4713 16.265C70.383 13.5092 73.2381 12.1189 77.0366 12.1189ZM71.8726 27.586C71.8726 28.6288 72.3691 29.597 73.1884 30.1928C74.0822 30.888 75.1745 31.2604 76.2918 31.2356C77.98 31.2356 79.5937 30.5653 80.7854 29.3736C82.1012 28.1322 82.7715 26.6674 82.7715 24.9792C81.5302 23.9862 79.7923 23.4896 77.5579 23.4896C75.9442 23.4896 74.5787 23.8868 73.4863 24.6565C72.4188 25.4509 71.8726 26.4192 71.8726 27.586ZM108.542 12.8141L95.1849 43.5H91.0637L96.0291 32.7748L87.2404 12.8389H91.5851L97.9159 28.1322H98.0152L104.197 12.8389L108.542 12.8141Z" fill="#5F6368"/>
<path d="M35.3277 18.7725C35.3277 17.556 35.2284 16.3395 35.0298 15.1478H18.1724V22.0248H27.83C27.4328 24.2344 26.1418 26.2205 24.2549 27.4619V31.9307H30.0147C33.3912 28.8274 35.3277 24.2344 35.3277 18.7725Z" fill="#4285F4"/>
<path d="M18.1721 36.2506C22.9885 36.2506 27.0601 34.6617 30.0145 31.9307L24.2547 27.4619C22.6409 28.5543 20.5803 29.1749 18.1721 29.1749C13.5047 29.1749 9.55723 26.0219 8.1421 21.8014H2.2085V26.4192C5.23736 32.4273 11.4192 36.2506 18.1721 36.2506Z" fill="#34A853"/>
<path d="M8.142 21.8014C7.3972 19.5918 7.3972 17.1836 8.142 14.9492V10.3562H2.2084C-0.348762 15.3961 -0.348762 21.3545 2.2084 26.3943L8.142 21.8014Z" fill="#FBBC04"/>
<path d="M18.1721 7.57565C20.7293 7.52599 23.1871 8.49424 25.0243 10.2569L30.1138 5.16745C26.8863 2.11375 22.6161 0.450359 18.1721 0.500012C11.4192 0.500012 5.23736 4.32334 2.2085 10.3562L8.1421 14.974C9.55723 10.7286 13.5047 7.57565 18.1721 7.57565Z" fill="#EA4335"/>
</g>
<defs>
<clipPath id="clip0_728_24997">
<rect width="108.25" height="43" fill="white" transform="translate(0.291992 0.5)"/>
</clipPath>
</defs>
</svg>
