<svg width="83" height="84" viewBox="0 0 83 84" fill="none" xmlns="http://www.w3.org/2000/svg">
<g clip-path="url(#clip0_729_25128)">
<path d="M15.6236 73.8408V69.7439C15.6236 68.2005 14.6396 67.1624 13.0549 67.1495C12.2213 67.1358 11.3603 67.3953 10.7596 68.3104C10.3086 67.5865 9.59796 67.1495 8.60029 67.1495C7.90329 67.1495 7.21996 67.3543 6.68696 68.1192V67.3134H5.26562V73.8415H6.70063V70.2226C6.70063 69.089 7.32929 68.488 8.29963 68.488C9.24263 68.488 9.72096 69.1026 9.72096 70.209V73.8415H11.156V70.2226C11.156 69.089 11.812 68.488 12.755 68.488C13.7253 68.488 14.19 69.1026 14.19 70.209V73.8415H15.625L15.6236 73.8408ZM36.8589 67.3127H34.5362V65.3322H33.1012V67.3127H31.7755V68.6102H33.1012V71.5871C33.1012 73.1032 33.6889 74.0047 35.3692 74.0047C35.9842 74.0047 36.6949 73.8135 37.1459 73.4993L36.7359 72.2837C36.3122 72.5296 35.8475 72.6525 35.4785 72.6525C34.7679 72.6525 34.5355 72.2154 34.5355 71.5598V68.6096H36.8582V67.312L36.8589 67.3127ZM48.9798 67.1488C48.1598 67.1488 47.6268 67.5312 47.2578 68.1049V67.3127H45.8502V73.8408H47.2715V70.181C47.2715 69.1019 47.7362 68.501 48.6655 68.501C48.9525 68.501 49.2532 68.5419 49.5538 68.6649L49.9912 67.3263C49.6768 67.2034 49.2668 67.1488 48.9798 67.1488ZM30.6556 67.8317C29.9722 67.381 29.0292 67.1488 27.9912 67.1488C26.3376 67.1488 25.2723 67.941 25.2723 69.2378C25.2723 70.3032 26.0649 70.9588 27.5266 71.1637L28.1962 71.2593C28.9752 71.3686 29.3442 71.5735 29.3442 71.9422C29.3442 72.4476 28.8249 72.7344 27.8546 72.7344C26.8706 72.7344 26.1599 72.4203 25.6816 72.0515L25.0119 73.1578C25.7909 73.7315 26.7749 74.0047 27.8402 74.0047C29.7262 74.0047 30.8189 73.1169 30.8189 71.8739C30.8189 70.7266 29.9579 70.1257 28.5372 69.9208L27.8676 69.8252C27.2526 69.7432 26.7606 69.6203 26.7606 69.1832C26.7606 68.7052 27.2252 68.4183 28.0042 68.4183C28.8379 68.4183 29.6442 68.7325 30.0406 68.9783L30.6556 67.8317ZM68.7254 67.1488C67.9054 67.1488 67.3724 67.5312 67.0034 68.1049V67.3127H65.5958V73.8408H67.0171V70.181C67.0171 69.1019 67.4818 68.501 68.4111 68.501C68.6981 68.501 68.9988 68.5419 69.2994 68.6649L69.7368 67.3263C69.4224 67.2034 69.0124 67.1488 68.7254 67.1488ZM50.4148 70.5764C50.4148 72.5569 51.7952 74.0047 53.8991 74.0047C54.8831 74.0047 55.5385 73.7861 56.2491 73.2261L55.5658 72.0788C55.0328 72.4613 54.4725 72.6661 53.8575 72.6661C52.7231 72.6525 51.8895 71.833 51.8895 70.5764C51.8895 69.3198 52.7231 68.501 53.8575 68.4873C54.4725 68.4873 55.0328 68.6922 55.5658 69.0746L56.2491 67.9273C55.5385 67.3673 54.8825 67.1488 53.8991 67.1488C51.7945 67.1488 50.4148 68.5966 50.4148 70.5764ZM63.7241 70.5764V67.3127H62.3028V68.1049C61.8518 67.5176 61.1684 67.1488 60.2391 67.1488C58.4078 67.1488 56.9735 68.5829 56.9735 70.5764C56.9735 72.5698 58.4085 74.0047 60.2391 74.0047C61.1684 74.0047 61.8518 73.6359 62.3028 73.0486V73.8408H63.7241V70.5764ZM58.4358 70.5764C58.4358 69.4291 59.1875 68.4873 60.4175 68.4873C61.5928 68.4873 62.3848 69.3888 62.3848 70.5764C62.3848 71.764 61.5921 72.6661 60.4175 72.6661C59.1875 72.6661 58.4358 71.7237 58.4358 70.5764ZM41.2869 67.1488C39.3735 67.1488 38.0349 68.5419 38.0349 70.5764C38.0349 72.6525 39.4289 74.0047 41.3825 74.0047C42.3665 74.0047 43.2685 73.7588 44.0605 73.0896L43.3635 72.0378C42.8168 72.4749 42.1198 72.7208 41.4638 72.7208C40.5482 72.7208 39.7145 72.2974 39.5095 71.1227H44.3605C44.3742 70.9452 44.3878 70.7676 44.3878 70.5764C44.3742 68.5419 43.1175 67.1488 41.2869 67.1488ZM41.2595 68.419C42.1752 68.419 42.7629 68.9927 42.9132 70.0034H39.5245C39.6749 69.061 40.2482 68.419 41.2595 68.419ZM76.9111 70.5764V64.6909H75.4897V68.1049C75.0387 67.5176 74.3554 67.1488 73.4268 67.1488C71.5954 67.1488 70.1611 68.5829 70.1611 70.5764C70.1611 72.5698 71.5961 74.0047 73.4268 74.0047C74.3561 74.0047 75.0394 73.6359 75.4897 73.0486V73.8408H76.9111V70.5764ZM71.6228 70.5764C71.6228 69.4291 72.3744 68.4873 73.6044 68.4873C74.7798 68.4873 75.5717 69.3888 75.5717 70.5764C75.5717 71.764 74.7791 72.6661 73.6044 72.6661C72.3744 72.6661 71.6228 71.7237 71.6228 70.5764ZM23.6323 70.5764V67.3127H22.2109V68.1049C21.7599 67.5176 21.0766 67.1488 20.1473 67.1488C18.3159 67.1488 16.8816 68.5829 16.8816 70.5764C16.8816 72.5698 18.3166 74.0047 20.1473 74.0047C21.0766 74.0047 21.7599 73.6359 22.2109 73.0486V73.8408H23.6323V70.5764ZM18.3439 70.5764C18.3439 69.4291 19.0956 68.4873 20.3249 68.4873C21.5003 68.4873 22.2922 69.3888 22.2922 70.5764C22.2922 71.764 21.4996 72.6661 20.3249 72.6661C19.0949 72.6661 18.3439 71.7237 18.3439 70.5764ZM79.2802 72.8942C79.3718 72.8942 79.4572 72.9113 79.5371 72.9455C79.6171 72.9796 79.6875 73.0254 79.7469 73.0848C79.8064 73.1435 79.8542 73.2125 79.8884 73.2917C79.9225 73.3709 79.9403 73.4549 79.9403 73.5437C79.9403 73.6325 79.9232 73.7165 79.8884 73.795C79.8542 73.8736 79.8064 73.9418 79.7469 74.0006C79.6868 74.0593 79.6171 74.1058 79.5371 74.1406C79.4572 74.1754 79.3711 74.1925 79.2802 74.1925C79.1866 74.1925 79.0998 74.1754 79.0185 74.1406C78.9372 74.1058 78.8668 74.0593 78.808 74.0006C78.7486 73.9418 78.7014 73.8729 78.6672 73.795C78.6331 73.7165 78.6153 73.6325 78.6153 73.5437C78.6153 73.4549 78.6324 73.3709 78.6672 73.2917C78.7014 73.2125 78.7486 73.1442 78.808 73.0848C78.8675 73.026 78.9378 72.9796 79.0185 72.9455C79.0998 72.9113 79.1866 72.8942 79.2802 72.8942ZM79.2802 74.0491C79.3506 74.0491 79.4155 74.0361 79.4763 74.0095C79.5364 73.9828 79.5897 73.9466 79.6355 73.9016C79.6813 73.8558 79.7168 73.8025 79.7428 73.7411C79.7688 73.6796 79.7818 73.614 79.7818 73.5437C79.7818 73.4734 79.7688 73.4078 79.7428 73.3463C79.7168 73.2849 79.6813 73.2316 79.6355 73.1858C79.5897 73.1401 79.5371 73.1046 79.4763 73.0786C79.4155 73.0527 79.3506 73.0397 79.2802 73.0397C79.2091 73.0397 79.1428 73.0527 79.0807 73.0786C79.0185 73.1046 78.9645 73.1401 78.9194 73.1858C78.8736 73.2316 78.8381 73.2849 78.8121 73.3463C78.7861 73.4078 78.7732 73.4734 78.7732 73.5437C78.7732 73.614 78.7861 73.6796 78.8121 73.7411C78.8381 73.8025 78.8743 73.8558 78.9194 73.9016C78.9652 73.9473 79.0192 73.9835 79.0807 74.0095C79.1428 74.0361 79.2091 74.0491 79.2802 74.0491ZM79.3185 73.2398C79.3957 73.2398 79.4558 73.2569 79.4975 73.2917C79.5392 73.3265 79.5604 73.373 79.5604 73.4324C79.5604 73.4822 79.544 73.5232 79.5105 73.5553C79.477 73.5874 79.4298 73.6079 79.3683 73.6147L79.5658 73.8421H79.4114L79.2283 73.6161H79.1695V73.8421H79.0403V73.2391H79.3185V73.2398ZM79.1688 73.3525V73.513H79.3171C79.3513 73.513 79.3779 73.5061 79.3984 73.4932C79.4182 73.4802 79.4285 73.4597 79.4285 73.4317C79.4285 73.4051 79.4182 73.3853 79.3984 73.3716C79.3779 73.3586 79.3513 73.3518 79.3171 73.3518L79.1688 73.3525Z" fill="black"/>
<path d="M51.8453 17.5492H30.3203V56.2069H51.8453V17.5492Z" fill="#F26A2A"/>
<path d="M31.6867 36.8781C31.6867 29.0353 35.3609 22.0504 41.0825 17.5492C36.8984 14.2568 31.6183 12.2927 25.8797 12.2927C12.2943 12.2927 1.28174 23.3001 1.28174 36.8781C1.28174 50.456 12.295 61.4634 25.8797 61.4634C31.6183 61.4634 36.8978 59.4993 41.0825 56.2069C35.3609 51.7051 31.6867 44.7208 31.6867 36.8781Z" fill="#EE232E"/>
<path d="M80.8833 36.8781C80.8833 50.456 69.87 61.4634 56.2853 61.4634C50.5467 61.4634 45.2673 59.4993 41.0825 56.2069C46.8041 51.7051 50.4784 44.7208 50.4784 36.8781C50.4784 29.0353 46.8041 22.0504 41.0825 17.5492C45.2666 14.2568 50.5467 12.2927 56.2853 12.2927C69.8707 12.2927 80.8833 23.3001 80.8833 36.8781Z" fill="#F99D2F"/>
<path d="M78.536 52.1128V51.3213H78.8552V51.1601H78.042V51.3213H78.3611V52.1128H78.5354H78.536ZM80.1145 52.1128V51.1588H79.8651L79.5781 51.815L79.2911 51.1588H79.0417V52.1128H79.218V51.393L79.4866 52.0138H79.669L79.9382 51.3916V52.1128H80.1145Z" fill="#F99D2F"/>
</g>
<defs>
<clipPath id="clip0_729_25128">
<rect width="82" height="84" fill="white" transform="translate(0.25)"/>
</clipPath>
</defs>
</svg>
