<svg width="84" height="82" viewBox="0 0 84 82" fill="none" xmlns="http://www.w3.org/2000/svg">
<g clip-path="url(#clip0_729_25014)">
<path d="M26.5204 71.5312V67.4588C26.5442 67.1163 26.4948 66.7726 26.3754 66.4507C26.256 66.1288 26.0693 65.8361 25.8278 65.592C25.5863 65.3479 25.2955 65.1582 24.9749 65.0353C24.6543 64.9125 24.3112 64.8594 23.9684 64.8797C23.5198 64.8505 23.0717 64.9422 22.6706 65.1451C22.2695 65.3481 21.9301 65.6549 21.6879 66.0336C21.4672 65.6661 21.1515 65.365 20.7741 65.162C20.3966 64.9589 19.9714 64.8614 19.5431 64.8797C19.1699 64.8609 18.7982 64.94 18.4649 65.1091C18.1315 65.2781 17.8482 65.5313 17.6428 65.8435V65.0426H16.231V71.5312H17.6563V67.934C17.6255 67.712 17.6442 67.486 17.7111 67.2721C17.778 67.0582 17.8915 66.8619 18.0433 66.697C18.1951 66.5322 18.3816 66.4031 18.5893 66.3189C18.797 66.2347 19.0207 66.1976 19.2445 66.2101C20.1811 66.2101 20.6563 66.8209 20.6563 67.9204V71.5312H22.0816V67.934C22.0531 67.7124 22.0735 67.4873 22.1412 67.2745C22.209 67.0616 22.3226 66.8662 22.4739 66.7019C22.6253 66.5376 22.8108 66.4084 23.0174 66.3235C23.224 66.2385 23.4467 66.1998 23.6698 66.2101C24.6335 66.2101 25.0951 66.8209 25.0951 67.9204V71.5312H26.5204ZM34.4751 68.2868V65.0426H33.0632V65.8299C32.8223 65.5194 32.5104 65.2711 32.1538 65.1058C31.7972 64.9404 31.4062 64.8629 31.0135 64.8797C30.1387 64.9226 29.314 65.3003 28.7101 65.9346C28.1061 66.5689 27.7693 67.4111 27.7693 68.2869C27.7693 69.1627 28.1061 70.005 28.7101 70.6393C29.314 71.2736 30.1387 71.6513 31.0135 71.6942C31.4062 71.711 31.7972 71.6334 32.1538 71.4681C32.5104 71.3028 32.8223 71.0545 33.0632 70.7439V71.5312H34.4751V68.2868ZM29.2218 68.2868C29.2437 67.904 29.3772 67.5359 29.6058 67.228C29.8344 66.92 30.1481 66.6857 30.5083 66.554C30.8684 66.4222 31.2593 66.3988 31.6326 66.4865C32.006 66.5742 32.3454 66.7693 32.6092 67.0477C32.873 67.326 33.0496 67.6755 33.1172 68.053C33.1847 68.4306 33.1403 68.8196 32.9894 69.1721C32.8385 69.5247 32.5877 69.8254 32.268 70.0371C31.9482 70.2489 31.5735 70.3624 31.19 70.3637C30.9212 70.3674 30.6546 70.3153 30.4069 70.2107C30.1592 70.1062 29.9359 69.9515 29.751 69.7564C29.5661 69.5613 29.4236 69.3299 29.3325 69.077C29.2414 68.8241 29.2037 68.5551 29.2218 68.2868ZM64.6829 64.8721C65.1596 64.8675 65.6326 64.9561 66.0753 65.133C66.4879 65.2977 66.8642 65.5417 67.183 65.8512C67.4966 66.1589 67.7455 66.5264 67.9147 66.9319C68.2673 67.8008 68.2673 68.7729 67.9147 69.6419C67.7455 70.0475 67.4967 70.415 67.183 70.7228C66.8643 71.0323 66.4879 71.2762 66.0753 71.4408C65.1796 71.7888 64.1861 71.7888 63.2905 71.4408C62.8785 71.2767 62.5032 71.0327 62.1861 70.7228C61.8742 70.4142 61.6266 70.0468 61.4577 69.6419C61.1055 68.7729 61.1055 67.8009 61.4577 66.9319C61.6267 66.527 61.8742 66.1597 62.1861 65.8512C62.5032 65.5413 62.8786 65.2972 63.2905 65.133C63.7332 64.9561 64.2062 64.8675 64.6829 64.8721ZM64.6829 66.2069C64.4068 66.2044 64.1329 66.2563 63.8767 66.3594C63.6353 66.4563 63.4163 66.6015 63.2331 66.7861C63.0486 66.9748 62.9035 67.1982 62.8061 67.4435C62.5983 67.9866 62.5983 68.5874 62.8061 69.1306C62.9034 69.3758 63.0486 69.5992 63.2331 69.7878C63.4163 69.9725 63.6353 70.1177 63.8767 70.2146C64.395 70.4179 64.9708 70.4179 65.4891 70.2146C65.7312 70.1172 65.9513 69.972 66.1361 69.7878C66.3223 69.5998 66.4687 69.3763 66.5665 69.1306C66.7743 68.5874 66.7743 67.9866 66.5665 67.4435C66.4687 67.1977 66.3223 66.9741 66.1361 66.7861C65.9512 66.6019 65.7312 66.4568 65.4891 66.3594C65.2329 66.2563 64.959 66.2044 64.6829 66.2069ZM42.1569 68.2868C42.1434 66.2643 40.8945 64.8797 39.0755 64.8797C38.1951 64.9259 37.3667 65.3113 36.7643 65.9551C36.1618 66.5989 35.8322 67.451 35.8445 68.3326C35.8568 69.2142 36.2101 70.0568 36.8302 70.6836C37.4504 71.3103 38.2891 71.6725 39.1706 71.6941C40.139 71.7281 41.0861 71.4043 41.8311 70.7846L41.1389 69.7394C40.6028 70.1689 39.9389 70.4077 39.252 70.418C38.7855 70.4573 38.3221 70.3135 37.9598 70.0171C37.5974 69.7206 37.3647 69.2949 37.3108 68.8299H42.1298C42.1434 68.6534 42.1569 68.477 42.1569 68.2868ZM37.3244 67.7168C37.3492 67.2812 37.5435 66.8725 37.8656 66.5783C38.1878 66.284 38.6123 66.1275 39.0484 66.1422C39.4748 66.1339 39.8871 66.2949 40.195 66.5901C40.5029 66.8852 40.6812 67.2904 40.6909 67.7168H37.3244ZM48.1022 66.6988C47.4863 66.3444 46.7902 66.1529 46.0797 66.1422C45.3058 66.1422 44.8444 66.4272 44.8444 66.9024C44.8444 67.3368 45.333 67.4588 45.9439 67.5403L46.609 67.6353C48.0208 67.8389 48.8759 68.4362 48.8759 69.5764C48.8759 70.8117 47.79 71.6942 45.9168 71.6942C44.9141 71.7219 43.9291 71.4268 43.1069 70.8524L43.772 69.753C44.3949 70.2149 45.1551 70.454 45.9304 70.4317C46.894 70.4317 47.4099 70.1467 47.4099 69.6443C47.4099 69.2778 47.0434 69.0742 46.2697 68.9657L45.6045 68.8707C44.1521 68.667 43.3648 68.0154 43.3648 66.9566C43.3648 65.667 44.4235 64.8797 46.0661 64.8797C46.9952 64.8477 47.914 65.0833 48.7131 65.5585L48.1022 66.6988ZM54.8857 66.3322H52.5781V69.2644C52.5781 69.9158 52.8089 70.3503 53.5147 70.3503C53.9553 70.3357 54.385 70.2096 54.7636 69.9838L55.1708 71.192C54.6415 71.522 54.0299 71.696 53.4061 71.6942C51.7365 71.6942 51.1528 70.7983 51.1528 69.2914V66.3322H49.8361V65.0426H51.1528L51.1524 63.0744H52.5777L52.5781 65.0426H54.8857V66.3322ZM59.7714 64.8797C60.1139 64.8811 60.4536 64.9408 60.776 65.0563L60.3416 66.3865C60.061 66.2748 59.7612 66.2195 59.4593 66.2236C58.5362 66.2236 58.0746 66.8209 58.0746 67.8932V71.5312H56.6629V65.0426H58.0611V65.8299C58.2343 65.5323 58.4846 65.287 58.7857 65.1197C59.0867 64.9525 59.4272 64.8695 59.7714 64.8797ZM69.545 70.5867C69.6328 70.5861 69.7198 70.6033 69.8007 70.6374C69.8785 70.6699 69.9494 70.7169 70.0096 70.7758C70.0694 70.8347 70.1172 70.9046 70.1504 70.9816C70.1844 71.0608 70.2019 71.146 70.2019 71.2321C70.2019 71.3182 70.1844 71.4035 70.1504 71.4826C70.117 71.5593 70.0692 71.6288 70.0096 71.6875C69.9493 71.7465 69.8784 71.7938 69.8007 71.8267C69.7199 71.8613 69.6329 71.8789 69.545 71.8783C69.4157 71.8796 69.2888 71.8427 69.1803 71.7724C69.0718 71.702 68.9864 71.6012 68.9349 71.4826C68.901 71.4034 68.8835 71.3182 68.8835 71.2321C68.8835 71.146 68.901 71.0608 68.9349 70.9816C68.968 70.9047 69.0156 70.8348 69.075 70.7758C69.1352 70.7164 69.2064 70.6694 69.2847 70.6374C69.3672 70.6032 69.4557 70.586 69.545 70.5867ZM69.545 71.7358C69.612 71.7363 69.6783 71.7228 69.7398 71.6962C69.7988 71.6706 69.8524 71.6341 69.8979 71.5886C69.9563 71.5305 69.9994 71.4589 70.0236 71.3801C70.0478 71.3014 70.0523 71.2179 70.0367 71.1371C70.021 71.0562 69.9858 70.9804 69.934 70.9163C69.8823 70.8522 69.8156 70.8019 69.7398 70.7696C69.6782 70.7434 69.6119 70.7301 69.545 70.7307C69.4768 70.7302 69.4093 70.7434 69.3464 70.7696C69.2864 70.7943 69.2318 70.8305 69.1858 70.8762C69.0919 70.971 69.0392 71.099 69.0392 71.2324C69.0392 71.3658 69.0919 71.4939 69.1858 71.5886C69.233 71.6356 69.2891 71.6728 69.3507 71.698C69.4124 71.7233 69.4784 71.7361 69.545 71.7358ZM69.583 70.9301C69.6466 70.9259 69.7096 70.9442 69.7611 70.9816C69.7817 70.9986 69.798 71.02 69.8089 71.0443C69.8197 71.0686 69.8247 71.0951 69.8236 71.1217C69.8243 71.1445 69.8203 71.1671 69.8117 71.1882C69.8031 71.2093 69.7902 71.2284 69.7738 71.2442C69.7344 71.2792 69.6846 71.3001 69.6321 71.3036L69.8284 71.53H69.6749L69.4929 71.3052H69.4343V71.53H69.3061V70.9301H69.583ZM69.4343 71.0425V71.2024H69.5815C69.6098 71.2038 69.6379 71.1969 69.6622 71.1825C69.6722 71.1759 69.6801 71.1668 69.6854 71.1561C69.6907 71.1454 69.693 71.1336 69.6922 71.1217C69.6929 71.11 69.6904 71.0984 69.6852 71.0879C69.6799 71.0775 69.672 71.0686 69.6622 71.0622C69.6378 71.048 69.6097 71.0411 69.5815 71.0425H69.4343Z" fill="black"/>
<path d="M52.8784 15.5205H31.4678V53.996H52.8784V15.5205Z" fill="#7375CF"/>
<path d="M32.8273 34.7583C32.8239 31.0528 33.6636 27.3951 35.2828 24.0622C36.902 20.7292 39.2582 17.8083 42.1732 15.5205C38.5634 12.6832 34.2283 10.9187 29.6631 10.4287C25.098 9.93874 20.4871 10.743 16.3575 12.7497C12.2278 14.7564 8.7461 17.8844 6.3102 21.7763C3.8743 25.6682 2.58252 30.1669 2.58252 34.7583C2.58252 39.3496 3.8743 43.8484 6.3102 47.7403C8.7461 51.6322 12.2278 54.7602 16.3575 56.7669C20.4871 58.7735 25.098 59.5778 29.6631 59.0878C34.2283 58.5979 38.5634 56.8334 42.1732 53.996C39.2583 51.7083 36.902 48.7874 35.2828 45.4544C33.6636 42.1214 32.8239 38.4637 32.8273 34.7583Z" fill="#EB001B"/>
<path d="M79.4283 49.9209V49.1332H79.7459V48.9727H78.937V49.1332H79.2548V49.9209H79.4283ZM80.9987 49.9209V48.9712H80.7508L80.4656 49.6244L80.1803 48.9712H79.9322V49.9209H80.1073V49.2045L80.3748 49.8222H80.5563L80.8238 49.203V49.9209H80.9987Z" fill="#00A2E5"/>
<path d="M81.7627 34.7583C81.7629 39.3495 80.4713 43.8483 78.0355 47.7402C75.5997 51.6321 72.1181 54.7601 67.9886 56.7668C63.859 58.7735 59.2482 59.5778 54.6831 59.0878C50.1181 58.5979 45.783 56.8334 42.1733 53.996C45.0857 51.706 47.4401 48.7846 49.059 45.4521C50.6779 42.1197 51.5191 38.4631 51.5191 34.7583C51.5191 31.0534 50.6779 27.3969 49.059 24.0644C47.4401 20.732 45.0857 17.8106 42.1733 15.5205C45.783 12.6832 50.1181 10.9187 54.6831 10.4287C59.2482 9.93874 63.859 10.7431 67.9886 12.7497C72.1181 14.7564 75.5997 17.8845 78.0355 21.7764C80.4713 25.6683 81.7629 30.167 81.7627 34.7583Z" fill="#00A2E5"/>
</g>
<defs>
<clipPath id="clip0_729_25014">
<rect width="83" height="82" fill="white" transform="translate(0.375)"/>
</clipPath>
</defs>
</svg>
