<svg width="89" height="30" viewBox="0 0 89 30" fill="none" xmlns="http://www.w3.org/2000/svg">
<g clip-path="url(#clip0_728_24982)">
<path d="M33.7896 0.545945L22.1368 29.5609H14.5347L8.79916 6.40345C8.45305 4.97469 8.14773 4.45469 7.08962 3.85344C5.36277 2.87719 2.50735 1.95594 -0.00195312 1.38719L0.167394 0.528445H12.4049C13.2089 0.528469 13.9851 0.826415 14.5866 1.36594C15.1948 1.90719 15.5978 2.65844 15.7214 3.48344L18.7499 20.2759L26.232 0.528445L33.7896 0.545945ZM63.575 20.0872C63.6083 12.4284 53.4314 12.0059 53.5006 8.58344C53.5217 7.54219 54.4735 6.43344 56.5501 6.15344C58.9816 5.90844 61.4328 6.35344 63.6417 7.44344L64.9025 1.28969C62.7578 0.447947 60.4787 0.0107275 58.1781 -0.000305176C51.0705 -0.000305176 46.0642 3.94345 46.0222 9.59345C45.9777 13.7697 49.5945 16.1009 52.3189 17.4897C55.12 18.9134 56.0643 19.8209 56.052 21.0934C56.031 23.0409 53.8146 23.9022 51.7454 23.9309C48.1322 23.9922 46.0308 22.9172 44.3584 22.0997L43.0555 28.4597C44.7366 29.2647 47.8393 29.9647 51.0531 29.9997C58.6107 29.9997 63.5502 26.1034 63.575 20.0747V20.0872ZM82.3441 29.5347H88.9981L83.192 0.519695H77.0535C76.3947 0.51348 75.7501 0.713448 75.208 1.09219C74.6582 1.4767 74.2346 2.01866 73.9917 2.64844L63.2004 29.5359H70.7531L72.2525 25.1997H81.4788L82.3441 29.5347ZM74.3217 19.2522L78.1079 8.40719L80.2711 19.2784L74.3217 19.2522ZM44.0654 0.519695L38.116 29.5347H30.9255L36.875 0.519695H44.0654Z" fill="#0039C5"/>
</g>
<defs>
<clipPath id="clip0_728_24982">
<rect width="89" height="30" fill="white"/>
</clipPath>
</defs>
</svg>
