<svg width="100" height="60" viewBox="0 0 100 60" fill="none" xmlns="http://www.w3.org/2000/svg">
<path d="M36.9853 59.9101C25.0716 58.8568 14.5494 54.3888 7.7055 47.4687C3.79935 43.5273 1.43124 39.2486 0.365191 34.2045C-0.123078 31.9088 -0.123078 28.1073 0.373328 25.7869C1.86255 18.7763 6.33834 12.6461 13.3938 7.96419C29.4823 -2.69981 54.1317 -2.65044 70.0737 8.08762C72.1895 9.51113 73.5567 10.6466 75.4772 12.5556C77.8941 14.9666 79.5949 17.3692 81.3852 20.891C81.4503 21.0227 81.784 21.1872 82.1176 21.253C83.2488 21.4917 84.7543 22.3803 85.9668 23.5241C86.9108 24.4128 87.6351 25.3837 89.4335 28.132C91.2483 30.905 99.4512 43.7083 99.9476 44.5476C100.143 44.8768 99.7604 45.3952 99.3291 45.3952C99.0199 45.3952 98.8083 45.1895 98.3526 44.4654C98.0352 43.9552 95.9438 40.6721 93.7059 37.1668C85.7878 24.7748 85.3646 24.1988 83.1593 23.0798L82.0037 22.4955H78.6021C75.2005 22.4955 75.2005 22.4955 75.1191 22.8576C74.6715 24.8406 74.582 25.3261 74.6797 25.4166C74.7448 25.4742 76.6734 26.585 78.9683 27.8851L83.143 30.2467L82.8826 30.798C82.7361 31.1024 82.5734 31.3493 82.5164 31.3493C82.4594 31.3493 78.9439 29.3827 74.7041 26.9718C70.4643 24.5691 66.7453 22.5285 66.4442 22.4462C65.2398 22.1088 63.3844 23.4583 63.3844 24.6761C63.3844 25.9103 63.7425 26.2641 71.1967 32.4354C75.8434 36.2863 78.5045 38.5985 78.9113 39.1416C79.6519 40.1372 80.4006 41.6019 81.0841 43.4039C82.2967 46.5801 84.266 48.3492 87.4967 49.172L88.5628 49.4435L88.4733 50.0278C88.4244 50.3487 88.3593 50.6449 88.3186 50.686C88.1803 50.8424 86.0401 50.1512 84.8031 49.5505C82.8663 48.6125 81.5317 47.2712 80.2215 44.9344C80.2134 44.9179 79.4484 45.1812 78.537 45.5186C76.9094 46.1193 76.8281 46.1686 75.29 47.6909C68.7228 54.1749 59.2992 58.3137 47.9307 59.7208C46.0671 59.9841 38.9547 60.0911 36.9853 59.9101ZM48.305 57.9188C53.5214 57.2194 57.574 56.1744 61.8057 54.4217C66.2489 52.5786 70.448 49.9372 73.3776 47.1231L74.5332 46.0123L71.6199 44.6052C68.5112 43.0994 68.202 42.8526 67.8032 41.5114C67.551 40.6638 67.8358 39.7587 68.6333 38.8947L69.2518 38.2118L67.9009 37.175C66.8348 36.3522 66.5012 35.9983 66.2896 35.4553C65.9559 34.5748 66.078 33.6203 66.6151 32.8551L67.022 32.2709L62.7578 31.5139C60.4141 31.0942 58.225 30.6746 57.8995 30.5758C57.2566 30.3866 56.6137 29.646 56.4428 28.9301C56.3533 28.5434 58.4447 18.225 58.9086 16.7521C59.1202 16.0938 60.0072 15.2957 60.6826 15.1723C61.3906 15.0406 73.9554 17.2705 74.582 17.6408C75.5748 18.225 75.8841 19.163 75.5748 20.6112L75.4446 21.2119H76.1363C76.5188 21.2119 77.4221 21.1625 78.1464 21.1049L79.4647 20.998L78.8137 19.7719C76.8525 16.0774 73.28 12.3417 68.8774 9.37947C66.8186 7.9971 62.4323 5.80835 59.7875 4.85386C56.0278 3.49617 51.4788 2.47585 47.1088 2.01506C44.7081 1.75998 38.4339 1.76821 36.1065 2.02329C30.5321 2.63219 25.4703 3.90759 21.0434 5.81658C10.7897 10.2352 3.897 17.5585 2.1311 25.9021C1.66724 28.0826 1.63469 31.9006 2.05786 33.8836C2.9937 38.2694 5.02816 42.0627 8.34024 45.5926C15.0946 52.7843 25.4134 57.2111 37.7828 58.2068C39.443 58.3384 46.6205 58.1409 48.305 57.9188ZM46.0509 50.0689C45.4161 49.8796 44.7651 49.1144 44.6267 48.3821C44.5372 47.9048 44.643 47.5757 45.3185 46.2509C48.0528 40.9025 49.2409 35.9819 49.2409 30.0163C49.2409 24.2482 48.1911 19.7555 45.5789 14.3741C45.0174 13.2221 44.5616 12.1442 44.5616 11.9879C44.5616 11.4119 45.0336 10.5808 45.5463 10.2599C46.2462 9.81558 47.4261 9.89786 47.9958 10.4327C48.2155 10.6384 48.777 11.5765 49.249 12.5145C51.1207 16.2255 52.3984 20.2986 53.0331 24.5362C53.4237 27.161 53.5051 32.131 53.1877 34.5337C52.6099 38.9606 51.4544 42.9184 49.5989 46.7858C48.4759 49.1226 47.7761 50.0853 47.1902 50.0853C47.0762 50.0853 46.8809 50.1183 46.767 50.1512C46.6531 50.1841 46.3275 50.1512 46.0509 50.0689ZM38.442 46.0452C37.4655 45.7572 36.7575 44.5394 37.0423 43.6343C37.1074 43.4121 37.5713 42.4 38.0677 41.3797C40.1591 37.0598 41.0298 32.4354 40.6067 27.8934C40.2567 24.1577 39.5976 21.8044 37.9293 18.3649C36.8144 16.0527 36.7575 15.6989 37.4085 14.7608C38.027 13.8722 39.5732 13.7323 40.3788 14.4811C40.9403 14.9995 42.6899 18.694 43.3654 20.784C45.5951 27.6959 45.2534 35.1261 42.397 41.9146C40.924 45.3952 39.8905 46.4731 38.442 46.0452ZM30.5972 41.9639C29.995 41.6924 29.4741 41.0423 29.3277 40.3923C29.2381 39.9973 29.3928 39.553 30.1089 38.0883C32.7455 32.6905 32.77 27.4984 30.1984 22.224C29.0672 19.9118 29.0428 19.451 29.995 18.5377C30.467 18.0851 30.6704 18.0111 31.3296 18.0111C32.4444 18.0111 33.0222 18.5788 34.015 20.6441C35.5449 23.8203 36.1716 26.5768 36.1634 30.1068C36.1553 33.7355 35.5694 36.2287 33.9418 39.5777C33.0059 41.4949 32.5421 42.0051 31.6062 42.1285C31.3214 42.1532 30.8657 42.0873 30.5972 41.9639ZM23.2731 38.1624C22.793 37.9649 22.2478 37.3067 22.085 36.7307C21.906 36.0888 22.0525 35.5787 22.7686 34.3856C23.6963 32.8469 23.9079 32.024 23.9079 30.0163C23.9079 28.0086 23.6963 27.1775 22.7686 25.647C22.4512 25.1286 22.142 24.5033 22.0687 24.2564C21.7676 23.2443 22.6058 22.0018 23.7288 21.7879C24.681 21.6069 25.332 22.0347 26.2109 23.4171C28.7417 27.4161 28.7417 32.7481 26.2109 36.7142C25.3157 38.1048 24.3229 38.5985 23.2731 38.1624ZM77.8209 44.3666C78.6672 44.0622 79.3996 43.7742 79.4484 43.7248C79.4973 43.6754 79.3345 43.1324 79.0822 42.507C78.5777 41.2316 78.6591 41.2645 76.8525 41.6101C74.9075 41.9886 73.7764 41.6512 71.6443 40.0632C71.0665 39.6271 70.4643 39.2732 70.3178 39.2732C70.1632 39.2732 69.8377 39.4954 69.5773 39.7752C69.032 40.3676 68.9507 41.2892 69.3901 41.8405C69.7807 42.3177 75.1273 44.8932 75.762 44.9097C76.0468 44.9179 76.9664 44.6711 77.8209 44.3666ZM76.9745 40.2277C77.7639 40.0632 77.8534 40.0138 77.7151 39.7505C77.5605 39.4625 70.1632 33.2583 69.5203 32.8715C68.9913 32.5589 68.56 32.6329 68.1206 33.1102C66.8348 34.5008 66.9894 34.797 70.3178 37.3725C74.3379 40.491 74.7692 40.6721 76.9745 40.2277ZM67.0464 30.8227C67.0464 30.7815 66.2082 30.0492 65.1829 29.2017C62.652 27.0952 62.1068 26.3053 62.1068 24.7419C62.1068 23.4418 62.9694 22.1829 64.3528 21.4588C65.0364 21.0967 66.2652 20.9897 66.9569 21.2201C67.4452 21.3847 69.6586 22.5943 72.7185 24.3716L73.3614 24.7501L73.8903 22.1993C74.4355 19.5909 74.4437 18.8997 73.9391 18.7434C73.7845 18.694 70.8305 18.1509 67.3801 17.5338C61.2442 16.4394 60.5687 16.3736 60.2839 16.8426C60.1293 17.0895 57.7937 28.0332 57.7937 28.494C57.7937 28.7244 57.9076 29.0124 58.0541 29.1359C58.1925 29.2593 60.1862 29.6954 62.4811 30.1068C66.9081 30.9132 67.0464 30.9379 67.0464 30.8227Z" fill="black"/>
</svg>
