<svg width="66" height="70" viewBox="0 0 66 70" fill="none" xmlns="http://www.w3.org/2000/svg">
<path d="M6.49161 1.83524C4.19921 1.83524 2.3042 3.67387 2.3042 5.94006V64.0579C2.3042 66.3257 4.19921 68.1627 6.49161 68.1627H59.45C61.7457 68.1627 63.5964 66.3257 63.5964 64.0579V5.94006C63.5964 3.67387 61.7457 1.83524 59.45 1.83524H6.49161Z" fill="white"/>
<path d="M6.47492 1.82083C4.18252 1.82083 2.31543 3.66597 2.31543 5.93216V64.0679C2.31543 66.3357 4.18252 68.1792 6.47492 68.1792H59.4514C61.7471 68.1792 63.6125 66.3357 63.6125 64.0679H63.3416C63.3416 66.1877 61.5976 67.9142 59.4514 67.9142H6.47492C4.3336 67.9142 2.58802 66.1877 2.58802 64.0679V5.93216C2.58802 3.81391 4.3336 2.08582 6.47492 2.08582H59.4514C61.5976 2.08582 63.3416 3.81391 63.3416 5.93216V64.0679H63.6125V5.93216C63.6125 3.66597 61.7471 1.82083 59.4514 1.82083H6.47492Z" fill="#0023A0"/>
<path d="M63.4751 44.1691V64.0674C63.4751 66.2653 61.6754 68.0454 59.4519 68.0454H6.47548C4.25205 68.0454 2.45557 66.2653 2.45557 64.0674V44.1691H63.4751Z" fill="#0023A0"/>
<path d="M45.2342 57.1573V62.9235H43.2358V57.1573L38.0467 48.6729L40.0468 48.2518L44.2539 55.3479L48.3575 48.4014H50.5695L45.2342 57.1573ZM32.5189 50.6942L30.1773 56.8214H34.8787L32.5189 50.6942ZM37.2795 63.0721L35.5569 58.569H29.5007L27.8405 62.9242H25.8175L31.5599 48.337H33.56L39.2155 62.6511L37.2795 63.0721ZM21.0336 50.1505H19.2486V55.2827H20.9039C22.9073 55.2827 24.0962 54.4617 24.0962 52.654C24.0962 50.9909 23.0354 50.1505 21.0336 50.1505ZM20.7988 57.0319H19.2486V62.9234H17.2485V48.4012H21.142C24.2456 48.4012 26.1176 49.8952 26.1176 52.5873C26.1176 55.5574 23.9911 57.0319 20.7988 57.0319Z" fill="white"/>
<path d="M40.7782 7.47491L32.8402 28.6704L32.0717 24.3673C30.0979 19.092 26.2635 13.8362 21.2715 11.5927L28.0173 38.509L36.604 38.5025L49.3698 7.47491H40.7782Z" fill="#0023A0"/>
<path d="M25.8374 7.46548H13.1307L12.9878 8.2832C23.164 10.8566 29.2809 16.8993 32.0758 24.3692L29.5125 10.0877C29.0247 8.12063 27.6043 7.53214 25.8374 7.46548Z" fill="#FFA000"/>
</svg>
