<svg width="96" height="46" viewBox="0 0 96 46" fill="none" xmlns="http://www.w3.org/2000/svg">
<g clip-path="url(#clip0_728_24988)">
<path d="M29.2323 12.1369C28.8712 12.469 28.5041 12.798 28.1461 13.1362C26.8802 14.3336 25.9296 15.7275 25.5945 17.4626C25.1298 19.868 25.6249 22.0738 27.0828 24.0511C27.8125 25.0398 28.6823 25.8609 29.8401 26.3331C29.9757 26.388 30.1128 26.4367 30.2788 26.5007C30.128 26.9105 29.9939 27.3142 29.8325 27.7072C28.8895 29.9922 27.6617 32.1067 25.989 33.9408C25.6783 34.282 25.3264 34.5913 24.9653 34.8838C23.7421 35.8724 22.3726 36.2548 20.8294 35.8039C20.0586 35.5799 19.2969 35.3271 18.5306 35.0894C17.74 34.8457 16.9402 34.6492 16.107 34.6294C15.0756 34.605 14.1205 34.9142 13.1684 35.2646C12.4448 35.5312 11.7166 35.8084 10.9687 35.9851C9.7911 36.2654 8.72627 35.9014 7.74979 35.2417C6.76418 34.5745 5.98574 33.7001 5.30936 32.7358C3.61691 30.3198 2.32814 27.7072 1.53904 24.8585C0.836769 22.3236 0.640255 19.7537 1.03481 17.1503C1.38366 14.8546 2.23979 12.7828 3.85608 11.0705C5.53025 9.29734 7.59136 8.56765 10.0074 8.80834C11.2109 8.92716 12.3595 9.27601 13.5127 9.61115C13.9941 9.7513 14.4846 9.85641 14.969 9.97981C15.6637 10.1565 16.3492 10.0758 17.021 9.87926C17.967 9.60201 18.9039 9.28668 19.8499 9.00485C21.2559 8.58745 22.6833 8.46711 24.1336 8.74893C26.0104 9.11301 27.4941 10.123 28.7356 11.5336C28.891 11.7103 29.0434 11.8901 29.1972 12.0699C29.2109 12.0866 29.217 12.1079 29.2323 12.1369Z" fill="#13130A"/>
<path d="M22.1762 0.576078C22.196 0.988909 22.2539 1.37737 22.2265 1.75973C22.0802 3.84826 21.2607 5.64431 19.8181 7.15548C19.1676 7.83795 18.4486 8.43816 17.5604 8.78853C16.8048 9.08711 16.0005 9.15109 15.1992 9.2105C15.187 9.2105 15.1733 9.19832 15.1611 9.1907C15.2723 4.52768 17.6259 1.51295 22.1747 0.574554L22.1762 0.576078Z" fill="#13130A"/>
<path d="M39.2559 6.11959C41.1174 5.80883 43.5548 5.54376 46.6564 5.54376C50.4678 5.54376 53.2586 6.43036 55.0318 8.02532C56.671 9.44357 57.6459 11.6144 57.6459 14.2726C57.6459 16.9309 56.8477 19.1032 55.3411 20.654C53.3028 22.8248 49.9788 23.9323 46.2131 23.9323C45.0614 23.9323 43.9981 23.8881 43.1115 23.6657V35.6302H39.2559V6.11959ZM43.1115 20.5215C43.9539 20.7439 45.0172 20.8322 46.3014 20.8322C50.9538 20.8322 53.7903 18.5731 53.7903 14.4509C53.7903 10.3286 50.9979 8.60115 46.7447 8.60115C45.0614 8.60115 43.7757 8.73369 43.1115 8.91192V20.5215Z" fill="#13130A"/>
<path d="M71.556 35.6317L71.2453 32.9293H71.1127C69.9169 34.6126 67.6121 36.1192 64.5547 36.1192C60.2116 36.1192 57.9966 33.0618 57.9966 29.9602C57.9966 24.7762 62.6048 21.9397 70.8919 21.9839V21.5406C70.8919 19.7674 70.4044 16.5775 66.0171 16.5775C64.023 16.5775 61.9406 17.1975 60.434 18.1725L59.5474 15.6025C61.3206 14.4509 63.8905 13.6968 66.5929 13.6968C73.151 13.6968 74.746 18.1724 74.746 22.4714V30.4919C74.746 32.3534 74.8343 34.1693 75.1009 35.6317H71.556ZM70.9802 24.6864C66.7255 24.598 61.8964 25.3505 61.8964 29.5169C61.8964 32.0427 63.5797 33.24 65.5738 33.24C68.3661 33.24 70.1378 31.4668 70.7578 29.651C70.8903 29.2519 70.9802 28.8086 70.9802 28.411V24.6879V24.6864Z" fill="#13130A"/>
<path d="M79.9251 14.1843L84.6216 26.8572C85.1091 28.2754 85.6408 29.9587 85.9957 31.2444H86.0841C86.4832 29.9587 86.9265 28.3196 87.4581 26.7688L91.7129 14.1843H95.8336L89.9839 29.4728C87.1915 36.8291 85.2873 40.5948 82.6276 42.8997C80.7218 44.583 78.8176 45.2487 77.8427 45.4254L76.8677 42.1456C77.8427 41.8349 79.1284 41.2149 80.2801 40.2399C81.3434 39.3975 82.6733 37.8909 83.5599 35.8968C83.7366 35.4977 83.8691 35.1884 83.8691 34.966C83.8691 34.7436 83.7807 34.4344 83.604 33.9469L75.6719 14.1828H79.9266L79.9251 14.1843Z" fill="#13130A"/>
</g>
<defs>
<clipPath id="clip0_728_24988">
<rect width="95" height="44.8478" fill="white" transform="translate(0.833496 0.57608)"/>
</clipPath>
</defs>
</svg>
